#!OML:ASF F:\twosubjects\two\Thursday\Session 1\justin.ASF
:FULLY-SPECIFIED
:DEGREES
393
root 12.1152 18.2418 10.6495 -171.247 -17.3505 -175.567
lowerback -4.82114 1.59869 -1.84026
upperback 1.24642 1.25632 9.21539
thorax 3.77146 0.184794 10.9937
lowerneck -21.5037 -4.12809 -12.0519
upperneck 26.7442 -3.995 5.41883
head 12.886 -2.52967 3.37766
rclavicle 2.38542e-014 -7.79236e-014
rhumerus -24.8109 -9.7801 -75.7168
rradius 26.5815
rwrist -2.93182
rhand -15.2747 13.369
rfingers 7.12502
rthumb 10.8998 -16.3281
lclavicle 2.38542e-014 -7.79236e-014
lhumerus -29.5198 1.50764 99.6457
lradius 28.7057
lwrist -6.08403
lhand -3.49754 36.8394
lfingers 7.12502
lthumb 22.2364 65.5802
rfemur -17.5161 -5.5092 30.0664
rtibia 32.2879
rfoot -22.5781 -16.3497
rtoes -5.3485
lfemur -7.43439 -2.53851 -6.21091
ltibia 14.1159
lfoot -14.7354 -9.51317
ltoes -14.812
394
root 12.1157 18.2422 10.6583 -171.12 -17.4171 -175.854
lowerback -4.83731 1.58414 -2.04628
upperback 1.25211 1.27423 9.11684
thorax 3.77991 0.199008 11.0084
lowerneck -21.49 -4.02061 -11.782
upperneck 26.7657 -3.84677 5.11521
head 12.8629 -2.47911 3.23925
rclavicle -1.63003e-014 -8.5875e-014
rhumerus -24.6599 -9.79941 -75.7543
rradius 26.7003
rwrist -3.44461
rhand -15.0643 12.8977
rfingers 7.12502
rthumb 11.1027 -16.7886
lclavicle -1.63003e-014 -8.5875e-014
lhumerus -29.4624 1.45224 99.5751
lradius 28.7916
lwrist -6.12807
lhand -3.30924 36.9446
lfingers 7.12502
lthumb 22.4172 65.6637
rfemur -17.6032 -5.62448 29.7666
rtibia 32.2586
rfoot -22.535 -16.3211
rtoes -5.18849
lfemur -7.57988 -2.60999 -6.49565
ltibia 14.1638
lfoot -14.7032 -9.73251
ltoes -13.5018
395
root 12.1159 18.2314 10.6704 -170.989 -17.5221 -176.053
lowerback -4.92558 1.5939 -2.22764
upperback 1.26603 1.31033 9.07099
thorax 3.83387 0.216368 11.0731
lowerneck -21.4081 -3.98644 -11.6493
upperneck 26.7723 -3.80105 4.91922
head 12.8371 -2.47454 3.14816
rclavicle 2.98177e-014 1.59028e-015
rhumerus -24.5029 -9.92518 -75.6843
rradius 26.7278
rwrist -3.51017
rhand -15.37 13.1484
rfingers 7.12502
rthumb 10.8078 -16.5535
lclavicle 2.98177e-014 1.59028e-015
lhumerus -29.3477 1.3994 99.5752
lradius 28.9918
lwrist -5.94184
lhand -3.08617 37.4016
lfingers 7.12502
lthumb 22.6313 66.0948
rfemur -17.7709 -5.79081 29.5904
rtibia 32.2229
rfoot -22.219 -16.5767
rtoes -6.41553
lfemur -7.79945 -2.43902 -6.71302
ltibia 14.2573
lfoot -14.9457 -9.84155
ltoes -14.481
396
root 12.117 18.2113 10.6855 -170.954 -17.6337 -176.162
lowerback -4.98833 1.60076 -2.34644
upperback 1.29071 1.33188 9.05215
thorax 3.88866 0.224547 11.1291
lowerneck -21.2672 -3.98128 -11.6531
upperneck 26.8552 -3.83208 4.92142
head 12.8452 -2.49775 3.1455
rclavicle 4.69132e-014 3.97569e-014
rhumerus -24.321 -10.2515 -75.5612
rradius 26.8368
rwrist -3.47079
rhand -14.9538 11.8807
rfingers 7.12502
rthumb 11.2093 -17.7998
lclavicle 4.69132e-014 3.97569e-014
lhumerus -29.2461 1.24973 99.5952
lradius 29.1703
lwrist -5.58198
lhand -3.12493 37.6201
lfingers 7.12502
lthumb 22.5941 66.3178
rfemur -17.8806 -6.00697 29.5054
rtibia 32.2687
rfoot -22.043 -16.7309
rtoes -7.9606
lfemur -7.88957 -2.30221 -6.8448
ltibia 14.2638
lfoot -15.1526 -9.76621
ltoes -16.5777
397
root 12.1194 18.2103 10.6962 -170.795 -17.649 -176.615
lowerback -5.08709 1.58443 -2.78003
upperback 1.30717 1.37284 8.91884
thorax 3.94573 0.247034 11.2485
lowerneck -21.2538 -3.87926 -11.531
upperneck 27.1087 -3.74771 4.87091
head 12.932 -2.47065 3.12305
rclavicle 1.15295e-013 7.31528e-014
rhumerus -24.1358 -10.4601 -75.5562
rradius 26.8869
rwrist -3.60275
rhand -14.3511 10.2429
rfingers 7.12502
rthumb 11.7906 -19.4052
lclavicle 1.15295e-013 7.31528e-014
lhumerus -29.2134 1.12808 99.5869
lradius 29.3679
lwrist -5.32706
lhand -3.14033 37.4785
lfingers 7.12502
lthumb 22.5793 66.1781
rfemur -17.9887 -6.28495 29.0216
rtibia 32.3634
rfoot -22.2754 -16.2555
rtoes -7.32341
lfemur -7.99792 -2.35482 -7.33698
ltibia 14.301
lfoot -15.0364 -9.75549
ltoes -16.0204
398
root 12.1233 18.219 10.7033 -170.678 -17.6765 -177.065
lowerback -5.09715 1.60605 -3.1989
upperback 1.28088 1.47153 8.7671
thorax 3.89511 0.306101 11.3368
lowerneck -21.1587 -3.77173 -11.3458
upperneck 27.3261 -3.67716 4.78326
head 12.9869 -2.4483 3.07264
rclavicle 2.14687e-014 3.18055e-015
rhumerus -24.0347 -10.8132 -75.5234
rradius 26.7619
rwrist -3.52182
rhand -14.2846 10.0492
rfingers 7.12502
rthumb 11.8547 -19.5953
lclavicle 2.14687e-014 3.18055e-015
lhumerus -29.2673 1.04477 99.5774
lradius 29.5865
lwrist -5.19169
lhand -3.16567 37.2761
lfingers 7.12502
lthumb 22.555 65.9786
rfemur -18.0851 -6.42457 28.57
rtibia 32.5111
rfoot -22.3634 -16.1247
rtoes -7.01638
lfemur -8.01177 -2.45225 -7.80065
ltibia 14.2312
lfoot -14.8164 -9.8488
ltoes -14.145
